<svg width="20" height="21" viewBox="0 0 20 21" fill="none" xmlns="http://www.w3.org/2000/svg">
<path d="M9.1 17.5H10.85V16.25C11.6833 16.1 12.4 15.775 13 15.275C13.6 14.775 13.9 14.0333 13.9 13.05C13.9 12.35 13.7 11.7083 13.3 11.125C12.9 10.5417 12.1 10.0333 10.9 9.6C9.9 9.26667 9.20833 8.975 8.825 8.725C8.44167 8.475 8.25 8.13333 8.25 7.7C8.25 7.26667 8.40417 6.925 8.7125 6.675C9.02083 6.425 9.46667 6.3 10.05 6.3C10.5833 6.3 11 6.42917 11.3 6.6875C11.6 6.94583 11.8167 7.26667 11.95 7.65L13.55 7C13.3667 6.41667 13.0292 5.90833 12.5375 5.475C12.0458 5.04167 11.5 4.8 10.9 4.75V3.5H9.15V4.75C8.31667 4.93333 7.66667 5.3 7.2 5.85C6.73333 6.4 6.5 7.01667 6.5 7.7C6.5 8.48333 6.72917 9.11667 7.1875 9.6C7.64583 10.0833 8.36667 10.5 9.35 10.85C10.4 11.2333 11.1292 11.575 11.5375 11.875C11.9458 12.175 12.15 12.5667 12.15 13.05C12.15 13.6 11.9542 14.0042 11.5625 14.2625C11.1708 14.5208 10.7 14.65 10.15 14.65C9.6 14.65 9.1125 14.4792 8.6875 14.1375C8.2625 13.7958 7.95 13.2833 7.75 12.6L6.1 13.25C6.33333 14.05 6.69583 14.6958 7.1875 15.1875C7.67917 15.6792 8.31667 16.0167 9.1 16.2V17.5ZM10 20.5C8.61667 20.5 7.31667 20.2375 6.1 19.7125C4.88333 19.1875 3.825 18.475 2.925 17.575C2.025 16.675 1.3125 15.6167 0.7875 14.4C0.2625 13.1833 0 11.8833 0 10.5C0 9.11667 0.2625 7.81667 0.7875 6.6C1.3125 5.38333 2.025 4.325 2.925 3.425C3.825 2.525 4.88333 1.8125 6.1 1.2875C7.31667 0.7625 8.61667 0.5 10 0.5C11.3833 0.5 12.6833 0.7625 13.9 1.2875C15.1167 1.8125 16.175 2.525 17.075 3.425C17.975 4.325 18.6875 5.38333 19.2125 6.6C19.7375 7.81667 20 9.11667 20 10.5C20 11.8833 19.7375 13.1833 19.2125 14.4C18.6875 15.6167 17.975 16.675 17.075 17.575C16.175 18.475 15.1167 19.1875 13.9 19.7125C12.6833 20.2375 11.3833 20.5 10 20.5ZM10 18.5C12.2333 18.5 14.125 17.725 15.675 16.175C17.225 14.625 18 12.7333 18 10.5C18 8.26667 17.225 6.375 15.675 4.825C14.125 3.275 12.2333 2.5 10 2.5C7.76667 2.5 5.875 3.275 4.325 4.825C2.775 6.375 2 8.26667 2 10.5C2 12.7333 2.775 14.625 4.325 16.175C5.875 17.725 7.76667 18.5 10 18.5Z" fill="#868686"/>
</svg>
