<svg width="20" height="20" viewBox="0 0 20 20" fill="none" xmlns="http://www.w3.org/2000/svg">
<path d="M14 9.5C14.2833 9.5 14.5208 9.40417 14.7125 9.2125C14.9042 9.02083 15 8.78333 15 8.5C15 8.21667 14.9042 7.97917 14.7125 7.7875C14.5208 7.59583 14.2833 7.5 14 7.5C13.7167 7.5 13.4792 7.59583 13.2875 7.7875C13.0958 7.97917 13 8.21667 13 8.5C13 8.78333 13.0958 9.02083 13.2875 9.2125C13.4792 9.40417 13.7167 9.5 14 9.5ZM6 7.5H11V5.5H6V7.5ZM2.5 19.5C1.93333 17.6 1.375 15.7042 0.825 13.8125C0.275 11.9208 0 9.98333 0 8C0 6.46667 0.533333 5.16667 1.6 4.1C2.66667 3.03333 3.96667 2.5 5.5 2.5H10.5C10.9833 1.86667 11.5708 1.375 12.2625 1.025C12.9542 0.675 13.7 0.5 14.5 0.5C14.9167 0.5 15.2708 0.645833 15.5625 0.9375C15.8542 1.22917 16 1.58333 16 2C16 2.1 15.9875 2.2 15.9625 2.3C15.9375 2.4 15.9083 2.49167 15.875 2.575C15.8083 2.75833 15.7458 2.94583 15.6875 3.1375C15.6292 3.32917 15.5833 3.525 15.55 3.725L17.825 6H20V12.975L17.175 13.9L15.5 19.5H10V17.5H8V19.5H2.5ZM4 17.5H6V15.5H12V17.5H14L15.55 12.35L18 11.525V8H17L13.5 4.5C13.5 4.16667 13.5208 3.84583 13.5625 3.5375C13.6042 3.22917 13.6667 2.91667 13.75 2.6C13.2667 2.73333 12.8417 2.9625 12.475 3.2875C12.1083 3.6125 11.8417 4.01667 11.675 4.5H5.5C4.53333 4.5 3.70833 4.84167 3.025 5.525C2.34167 6.20833 2 7.03333 2 8C2 9.63333 2.225 11.2292 2.675 12.7875C3.125 14.3458 3.56667 15.9167 4 17.5Z" fill="#868686"/>
</svg>
